<mxfile host="drawio-plugin" modified="2022-01-20T09:58:25.008Z" agent="5.0 (Macintosh; Intel Mac OS X 12_1_0) AppleWebKit/537.36 (KHTML, like Gecko) Chrome/89.0.4389.114 Safari/537.36" version="15.5.4" etag="QBn1yG5CnDDFvQbQi8JI" type="embed"><diagram id="it8LUdVHBXiyWxHFcOai" name="Page-1"><mxGraphModel dx="1384" dy="785" grid="0" gridSize="10" guides="1" tooltips="1" connect="1" arrows="1" fold="1" page="1" pageScale="1" pageWidth="850" pageHeight="1100" math="0" shadow="0"><root><mxCell id="0"/><mxCell id="1" parent="0"/><mxCell id="9" value="" style="rounded=1;whiteSpace=wrap;html=1;fillColor=none;strokeColor=#FFB570;fontFamily=Georgia;" vertex="1" parent="1"><mxGeometry x="49" y="52" width="405" height="392" as="geometry"/></mxCell><mxCell id="2" value="Large File" style="shape=document;whiteSpace=wrap;html=1;boundedLbl=1;fontFamily=Georgia;" vertex="1" parent="1"><mxGeometry x="72" y="101" width="140" height="310" as="geometry"/></mxCell><mxCell id="3" value="Chunk" style="shape=document;whiteSpace=wrap;html=1;boundedLbl=1;fontFamily=Georgia;" vertex="1" parent="1"><mxGeometry x="297" y="101" width="144" height="50" as="geometry"/></mxCell><mxCell id="4" value="Chunk" style="shape=document;whiteSpace=wrap;html=1;boundedLbl=1;fontFamily=Georgia;" vertex="1" parent="1"><mxGeometry x="297" y="161" width="146" height="50" as="geometry"/></mxCell><mxCell id="5" value="Chunk" style="shape=document;whiteSpace=wrap;html=1;boundedLbl=1;fontFamily=Georgia;" vertex="1" parent="1"><mxGeometry x="297" y="351" width="142" height="50" as="geometry"/></mxCell><mxCell id="6" value="" style="shape=flexArrow;endArrow=classic;html=1;rounded=0;fontFamily=Georgia;" edge="1" parent="1"><mxGeometry width="50" height="50" relative="1" as="geometry"><mxPoint x="217" y="199" as="sourcePoint"/><mxPoint x="277" y="199" as="targetPoint"/></mxGeometry></mxCell><mxCell id="7" value="Splits" style="text;html=1;strokeColor=none;fillColor=none;align=center;verticalAlign=middle;whiteSpace=wrap;rounded=0;fontFamily=Georgia;" vertex="1" parent="1"><mxGeometry x="218" y="149" width="60" height="30" as="geometry"/></mxCell><mxCell id="11" value="..." style="text;html=1;strokeColor=none;fillColor=none;align=center;verticalAlign=middle;whiteSpace=wrap;rounded=0;fontFamily=Georgia;" vertex="1" parent="1"><mxGeometry x="349" y="263" width="60" height="30" as="geometry"/></mxCell><mxCell id="15" value="Server" style="shape=umlLifeline;perimeter=lifelinePerimeter;whiteSpace=wrap;html=1;container=1;collapsible=0;recursiveResize=0;outlineConnect=0;strokeColor=#FFB570;fillColor=none;fontFamily=Georgia;" vertex="1" parent="1"><mxGeometry x="687" y="54" width="100" height="379" as="geometry"/></mxCell><mxCell id="21" value="" style="html=1;points=[];perimeter=orthogonalPerimeter;strokeColor=#FFB570;fillColor=none;fontFamily=Georgia;" vertex="1" parent="15"><mxGeometry x="45" y="165" width="10" height="53" as="geometry"/></mxCell><mxCell id="25" value="" style="html=1;points=[];perimeter=orthogonalPerimeter;strokeColor=#FFB570;fillColor=none;fontFamily=Georgia;" vertex="1" parent="15"><mxGeometry x="45" y="259" width="10" height="53" as="geometry"/></mxCell><mxCell id="26" value="Chunk upload" style="html=1;verticalAlign=bottom;endArrow=block;rounded=0;fontFamily=Georgia;" edge="1" parent="15"><mxGeometry width="80" relative="1" as="geometry"><mxPoint x="-105" y="262" as="sourcePoint"/><mxPoint x="48.5" y="262" as="targetPoint"/></mxGeometry></mxCell><mxCell id="27" value="upload complete" style="html=1;verticalAlign=bottom;endArrow=open;dashed=1;endSize=8;rounded=0;exitX=0.1;exitY=0.887;exitDx=0;exitDy=0;exitPerimeter=0;fontFamily=Georgia;" edge="1" parent="15" source="25"><mxGeometry relative="1" as="geometry"><mxPoint x="37" y="308" as="sourcePoint"/><mxPoint x="-103" y="306" as="targetPoint"/></mxGeometry></mxCell><mxCell id="16" value="Client" style="shape=umlLifeline;perimeter=lifelinePerimeter;whiteSpace=wrap;html=1;container=1;collapsible=0;recursiveResize=0;outlineConnect=0;strokeColor=#FFB570;fillColor=none;fontFamily=Georgia;" vertex="1" parent="1"><mxGeometry x="528" y="56" width="100" height="382" as="geometry"/></mxCell><mxCell id="20" value="" style="html=1;points=[];perimeter=orthogonalPerimeter;strokeColor=#FFB570;fillColor=none;fontFamily=Georgia;" vertex="1" parent="16"><mxGeometry x="44" y="77" width="10" height="248" as="geometry"/></mxCell><mxCell id="29" value="Split Large file to chunks" style="edgeStyle=orthogonalEdgeStyle;html=1;align=left;spacingLeft=2;endArrow=block;rounded=0;entryX=0.9;entryY=0.141;entryDx=0;entryDy=0;entryPerimeter=0;fontFamily=Georgia;" edge="1" target="20" parent="16"><mxGeometry relative="1" as="geometry"><mxPoint x="54" y="77" as="sourcePoint"/><Array as="points"><mxPoint x="84" y="77"/><mxPoint x="84" y="112"/></Array><mxPoint x="59" y="97" as="targetPoint"/></mxGeometry></mxCell><mxCell id="23" value="Chunk checksum check" style="html=1;verticalAlign=bottom;endArrow=block;rounded=0;fontFamily=Georgia;" edge="1" parent="1"><mxGeometry width="80" relative="1" as="geometry"><mxPoint x="582" y="222" as="sourcePoint"/><mxPoint x="735.5" y="222" as="targetPoint"/></mxGeometry></mxCell><mxCell id="24" value="checksum matched or not" style="html=1;verticalAlign=bottom;endArrow=open;dashed=1;endSize=8;rounded=0;exitX=0.1;exitY=0.887;exitDx=0;exitDy=0;exitPerimeter=0;fontFamily=Georgia;" edge="1" parent="1" source="21"><mxGeometry relative="1" as="geometry"><mxPoint x="724" y="268" as="sourcePoint"/><mxPoint x="584" y="266" as="targetPoint"/></mxGeometry></mxCell></root></mxGraphModel></diagram></mxfile>